<?xml version="1.0" encoding="UTF-8" standalone="no"?>
<svg
   xmlns:sketch="http://www.bohemiancoding.com/sketch/ns"
   xmlns:dc="http://purl.org/dc/elements/1.1/"
   xmlns:cc="http://creativecommons.org/ns#"
   xmlns:rdf="http://www.w3.org/1999/02/22-rdf-syntax-ns#"
   xmlns:svg="http://www.w3.org/2000/svg"
   xmlns="http://www.w3.org/2000/svg"
   id="svg13"
   version="1.1"
   viewBox="0 0 16 16"
   height="16px"
   width="16px">
  <metadata
     id="metadata17">
    <rdf:RDF>
      <cc:Work
         rdf:about="">
        <dc:format>image/svg+xml</dc:format>
        <dc:type
           rdf:resource="http://purl.org/dc/dcmitype/StillImage" />
      </cc:Work>
    </rdf:RDF>
  </metadata>
  <!-- Generator: Sketch 3.2.2 (9983) - http://www.bohemiancoding.com/sketch -->
  <title
     id="title2">icon-chat</title>
  <desc
     id="desc4">Created with Sketch.</desc>
  <defs
     id="defs6" />
  <g
     sketch:type="MSPage"
     fill-rule="evenodd"
     fill="none"
     stroke-width="1"
     stroke="none"
     id="Page-1">
    <g
       fill="#D0BC57"
       transform="translate(-33.000000, -451.000000)"
       sketch:type="MSArtboardGroup"
       id="Artboard-1">
      <g
         transform="translate(33.000000, 451.000000)"
         sketch:type="MSLayerGroup"
         id="utility-items">
        <g
           sketch:type="MSShapeGroup"
           id="icon-chat">
          <path
             id="Shape"
             d="M4.98112,15.5053333 C4.81664,15.5053333 4.65344,15.438 4.53056,15.3113333 C4.32128,15.0953333 4.2816,14.7566667 4.43392,14.4926667 L5.74336,12.23 C2.48,11.51 0.1248,9.09933333 0.1248,6.32666667 C0.1248,2.94733333 3.5552,0.198666667 7.77344,0.198666667 C11.99104,0.198666667 15.42208,2.94733333 15.42208,6.32666667 C15.42208,8.85266667 13.54176,11.076 10.62592,12.01 L5.31456,15.4066667 C5.21152,15.4726667 5.09568,15.5053333 4.98112,15.5053333 L4.98112,15.5053333 Z M7.77344,1.532 C4.26112,1.532 1.40288,3.68333333 1.40288,6.32666667 C1.40288,8.684 3.744,10.7213333 6.84928,11.0633333 C7.06624,11.088 7.25696,11.226 7.3536,11.4313333 C7.45024,11.6366667 7.44192,11.8766667 7.328,12.072 L6.88448,12.838 L10.02944,10.828 C10.0768,10.7973333 10.128,10.774 10.18048,10.7586667 C12.5888,10.0113333 14.144,8.272 14.144,6.32666667 C14.14528,3.68333333 11.28576,1.532 7.77344,1.532 L7.77344,1.532 Z" />
        </g>
      </g>
    </g>
  </g>
</svg>
